<svg xmlns="http://www.w3.org/2000/svg" version="1.1" xmlns:xlink="http://www.w3.org/1999/xlink" xmlns:svgjs="http://svgjs.dev/svgjs" width="1000" height="419" viewBox="0 0 1000 419"><g transform="matrix(1,0,0,1,-0.6060486308069244,0.31286539325088825)"><svg viewBox="0 0 396 166" data-background-color="#111111" preserveAspectRatio="xMidYMid meet" height="419" width="1000" xmlns="http://www.w3.org/2000/svg" xmlns:xlink="http://www.w3.org/1999/xlink"><g id="tight-bounds" transform="matrix(1,0,0,1,0.239995257799535,-0.12395144458149332)"><svg viewBox="0 0 395.52 166.247902889163" height="166.247902889163" width="395.52"><g><svg viewBox="0 0 395.52 166.247902889163" height="166.247902889163" width="395.52"><g transform="matrix(1,0,0,1,0,102.74787352058736)"><svg viewBox="0 0 395.52 63.50002936857562" height="63.50002936857562" width="395.52"><g><svg viewBox="0 0 395.52 63.50002936857562" height="63.50002936857562" width="395.52"><g><svg viewBox="0 0 395.52 63.50002936857562" height="63.50002936857562" width="395.52"><g transform="matrix(1,0,0,1,0,0)"><svg width="395.52" viewBox="1.899999976158142 -29.350000381469727 306.42999267578125 49.20000076293945" height="63.50002936857562" data-palette-color="#39cccc"><path d="M14.7-7.25L14.7-6.25Q14.7-3.4 14.95 0L14.95 0 3.95 0Q1.9-7.95 1.9-16.9L1.9-16.9Q1.9-21.45 2.45-25L2.45-25 29.55-25Q31-19.35 31.15-11.55L31.15-11.55Q23.75-8.25 14.7-7.25L14.7-7.25ZM14.75-10.7L14.75-10.7Q17.95-11.1 20.1-12.3L20.1-12.3Q19.3-17.6 15.8-21.7L15.8-21.7Q15-16.75 14.75-10.7ZM66.25-24.05L66.25-24.05Q64.55-23.65 63.4-23.65 62.25-23.65 61.2-23.8L61.2-23.8Q59.65-21.95 58.4-18.85 57.15-15.75 56.52-13.3 55.9-10.85 55.15-7.3L55.15-7.3Q51.35 10.8 47.55 18.4L47.55 18.4Q45.05 19.15 41.35 19.85L41.35 19.85Q46.35 11.3 49.45 0L49.45 0 39.1 0Q35.15-12.8 35-25L35-25 49.6-25Q48.55-20.35 48.55-15.13 48.55-9.9 50.25-3.2L50.25-3.2Q50.6-4.55 51.45-7.93 52.3-11.3 52.7-12.75 53.1-14.2 53.92-16.85 54.75-19.5 55.42-20.83 56.1-22.15 57.1-23.8L57.1-23.8Q58.9-26.75 61.85-27.8L61.85-27.8Q62.7-28.05 65.3-28.33 67.9-28.6 69.05-29.35L69.05-29.35Q67.7-26.25 66.25-24.05ZM91.25-21.75L91.25-21.75Q89.95-13.85 89.95-8.85 89.95-3.85 90.35 0L90.35 0 79.45 0Q77.75-7.95 77.75-17.1L77.75-17.1Q77.75-18.65 77.85-21.75L77.85-21.75Q73.6-20.5 72.65-16L72.65-16 67.7-16.3 69.5-25 102.75-25Q101.75-19.5 100.45-16L100.45-16 95.4-16.3Q95.6-17.1 95.6-17.9L95.6-17.9Q95.6-19.85 94.4-20.8 93.2-21.75 91.25-21.75ZM137.84-20.85L137.84-20.85Q137.84-11.05 135.94 0L135.94 0 123.99 0Q124.79-5.9 125.04-12.7L125.04-12.7Q122.44-14.3 119.24-14.65L119.24-14.65Q118.94-7.3 117.64 0L117.64 0 106.29 0Q106.94-4.9 106.94-11.73 106.94-18.55 106.04-25L106.04-25 119.24-25Q119.34-22.95 119.34-18.9L119.34-18.9Q122.24-18 125.09-16.45L125.09-16.45Q125.09-21.1 124.74-25L124.74-25 137.74-25Q137.84-22.2 137.84-20.85ZM146.04-0.15L146.04-0.15Q141.59-5.85 141.59-11.85 141.59-17.85 146.59-22 151.59-26.15 159.39-26.15L159.39-26.15Q163.54-26.15 167.64-24.9L167.64-24.9Q171.24-20.35 171.24-15.15L171.24-15.15Q171.24-8.6 165.89-3.75 160.54 1.1 152.94 1.1L152.94 1.1Q149.69 1.1 146.04-0.15ZM153.64-21.8L153.64-21.8Q151.89-18.8 151.89-14.75 151.89-10.7 153.67-7.28 155.44-3.85 158.54-2.35L158.54-2.35Q160.89-5.35 160.89-9.3 160.89-13.25 158.97-16.65 157.04-20.05 153.64-21.8ZM199.14-25L205.09-25Q205.39-19.75 205.39-13.93 205.39-8.1 204.89 0L204.89 0 200.09 0Q190.39-5.2 182.29-14.15L182.29-14.15Q182.69-10.8 182.69-7.28 182.69-3.75 182.44 0L182.44 0 176.59 0Q177.59-6.15 177.59-11.38 177.59-16.6 177.09-19.65L177.09-19.65Q175.09-22.65 173.94-25L173.94-25 188.14-25Q190.24-21.4 193.86-17.57 197.49-13.75 200.79-11.6L200.79-11.6Q200.79-18.9 199.14-25L199.14-25ZM229.29-14.95L229.29-14.95 233.99-14.65Q234.69-14.65 235.04-14.7L235.04-14.7 232.69-10.3 232.24-10.3Q231.29-10.3 229.54-10.83 227.79-11.35 227.04-11.35L227.04-11.35Q224.99-11.35 223.79-8.7L223.79-8.7Q223.59-6.25 223.49-3.8L223.49-3.8Q226.09-3.3 227.59-3.3L227.59-3.3 228.04-3.3Q230.19-3.3 231.46-4.25 232.74-5.2 233.29-7.65L233.29-7.65 239.29-7.4Q238.54-3.1 237.29 0L237.29 0 212.74 0Q211.74-6.75 211.74-13.4 211.74-20.05 212.44-25L212.44-25 239.24-25Q238.34-19.6 237.64-17.4L237.64-17.4Q234.69-17.25 232.24-17.2L232.24-17.2Q232.64-18.35 232.64-19.35L232.64-19.35Q232.64-21.75 229.04-21.75L229.04-21.75Q227.69-21.75 226.04-21.45L226.04-21.45Q224.94-16.7 224.34-13.1L224.34-13.1Q226.34-14.95 229.29-14.95ZM263.23-22L263.23-22Q261.23-22.3 258.96-22.3 256.68-22.3 254.53-22L254.53-22Q255.88-19.7 257.73-18.25 259.58-16.8 262.41-15.38 265.23-13.95 267.01-12.75 268.78-11.55 270.93-8.8 273.08-6.05 273.63-3.05L273.63-3.05Q271.23 0.05 267.28 2.43 263.33 4.8 259.18 5.6L259.18 5.6Q256.38 5.35 252.11 4.03 247.83 2.7 245.68 2.7 243.53 2.7 241.38 4.05L241.38 4.05Q242.28 1.5 244.33-2.35L244.33-2.35 244.73-2.35Q247.93-2.35 250.76-1.35 253.58-0.35 255.91 0.65 258.23 1.65 259.66 1.65 261.08 1.65 261.73 1.45L261.73 1.45Q261.73-1.85 259.68-4L259.68-4Q258.58-5.15 257.81-5.78 257.03-6.4 255.43-7.5L255.43-7.5 254.58-8.1Q251.18-10.45 248.98-12.88 246.78-15.3 245.78-18.85L245.78-18.85Q247.38-22.4 248.93-25L248.93-25Q253.68-26.15 258.78-26.15L258.78-26.15 260.98-26.15Q265.28-26.15 270.83-24.95L270.83-24.95Q270.03-21.65 268.88-19L268.88-19Q264.68-18.7 262.38-18.7L262.38-18.7Q262.83-19.85 263.23-22ZM308.33-0.4L308.33-0.4 308.33 0 296.73 0Q296.53-2.75 295.88-5.9L295.88-5.9Q292.38-2.4 288.88 0L288.88 0 277.23 0Q276.88-2.05 276.88-5.43 276.88-8.8 277.88-12.2L277.88-12.2Q281.48-13.25 284.81-15.75 288.13-18.25 289.63-21.15L289.63-21.15Q288.23-23.35 286.78-25L286.78-25 303.38-25Q308.33-14.15 308.33-0.4ZM294.98-9.55L294.98-9.55Q293.73-13.85 291.58-17.95L291.58-17.95Q289.23-11.05 288.88-4.9L288.88-4.9Q292.58-6.9 294.98-9.55Z" opacity="1" transform="matrix(1,0,0,1,0,0)" fill="#39cccc" class="undefined-text-0" data-fill-palette-color="primary" id="text-0"></path></svg></g></svg></g></svg></g></svg></g><g transform="matrix(1,0,0,1,145.88147970631422,0)"><svg viewBox="0 0 103.7570405873715 87.7570405873715" height="87.7570405873715" width="103.7570405873715"><g><svg xmlns="http://www.w3.org/2000/svg" xmlns:xlink="http://www.w3.org/1999/xlink" version="1.1" x="8" y="0" viewBox="5 5 90 90" enable-background="new 0 0 100 100" xml:space="preserve" height="87.7570405873715" width="87.7570405873715" class="icon-icon-0" data-fill-palette-color="accent" id="icon-0"><path d="M61.25 50v33.75h-5.625V27.5h22.5v-4.406h10.969l-1.656-1.641 1.688-1.641h-11V5h-33.75v78.75H38.75v-45H5v22.5h22.5V95h45V72.5H95V50H61.25zM70.333 10h3.833v3.833h-3.833V10zM63.5 10h3.833v3.833H63.5V10zM12.708 47.875H8.875v-3.834h3.833V47.875zM19.291 47.875h-3.833v-3.834h3.833V47.875zM84.458 58.875h-3.833v-3.834h3.833V58.875zM91.041 58.875h-3.833v-3.834h3.833V58.875z" fill="#39cccc" data-fill-palette-color="accent"></path></svg></g></svg></g><g><rect width="145.88147970631422" height="5.726498180488457" y="81.03054240688304" x="249.63852029368573" fill="#39cccc" data-fill-palette-color="accent"></rect><rect width="145.88147970631422" height="5.726498180488457" y="81.03054240688304" x="0" fill="#39cccc" data-fill-palette-color="accent"></rect><rect width="145.88147970631422" height="5.726498180488457" y="69.57754604590613" x="249.63852029368573" fill="#39cccc" data-fill-palette-color="accent"></rect><rect width="145.88147970631422" height="5.726498180488457" y="69.57754604590613" x="0" fill="#39cccc" data-fill-palette-color="accent"></rect></g></svg></g><defs></defs></svg><rect width="395.52" height="166.247902889163" fill="none" stroke="none" visibility="hidden"></rect></g></svg></g></svg>