<?xml version="1.0" encoding="utf-8"?>
<!-- Generator: Adobe Illustrator 27.5.0, SVG Export Plug-In . SVG Version: 6.00 Build 0)  -->
<svg version="1.1" id="Capa_1" xmlns="http://www.w3.org/2000/svg" xmlns:xlink="http://www.w3.org/1999/xlink" x="0px" y="0px"
	 viewBox="0 0 100 100" style="enable-background:new 0 0 100 100;" xml:space="preserve">
<style type="text/css">
	.st0{fill:#48A4AC;}
</style>
<g>
	<line class="st0" x1="513.24" y1="193.82" x2="513.24" y2="55.38"/>
</g>
<line class="st0" x1="513.24" y1="193.82" x2="513.24" y2="55.38"/>
<path class="st0" d="M50.11-19.17"/>
<path class="st0" d="M50.11,119.28"/>
<g transform="matrix(1,0,0,1,145.88147970631422,0)">
	<g>
		<path class="st0" d="M-85.03,50v32.21h-5.37V28.53h21.47v-4.21h10.47l-1.58-1.57l1.61-1.57h-10.5V7.05h-32.21v75.16h-5.37V39.26
			h-32.21v21.47h21.47v32.21h42.95V71.47h21.47V50H-85.03z M-76.36,11.82h3.66v3.66h-3.66V11.82z M-82.89,11.82h3.66v3.66h-3.66
			V11.82z M-131.36,47.97h-3.66v-3.66h3.66V47.97z M-125.08,47.97h-3.66v-3.66h3.66V47.97z M-62.88,58.47h-3.66v-3.66h3.66V58.47z
			 M-56.6,58.47h-3.66v-3.66h3.66V58.47z"/>
	</g>
</g>
</svg>
